<mxfile host="Electron" agent="Mozilla/5.0 (Macintosh; Intel Mac OS X 10_15_7) AppleWebKit/537.36 (KHTML, like Gecko) draw.io/28.0.4 Chrome/138.0.7204.97 Electron/37.2.1 Safari/537.36" version="28.0.4" pages="4">
  <diagram id="6fbb5d8bb97e470d" name="Redis Graph Tb">
    <mxGraphModel dx="706" dy="604" grid="1" gridSize="10" guides="1" tooltips="1" connect="1" arrows="1" fold="1" page="1" pageScale="1" pageWidth="827" pageHeight="1169" math="0" shadow="0">
      <root>
        <mxCell id="0" />
        <mxCell id="1" parent="0" />
        <UserObject label="" mermaidData="{&quot;data&quot;:&quot;graph TB\n    subgraph \&quot;Redis Server\&quot;\n        MEM[Memory Storage]\n        PUB[Pub/Sub Engine]\n        LISTS[Lists]\n        STREAMS[Streams]\n        SETS[Sets]\n        HASHES[Hashes]\n    end\n    \n    subgraph \&quot;Clients\&quot;\n        PUBLISHER[Publishers]\n        SUBSCRIBER[Subscribers]\n        CONSUMER[Stream Consumers]\n    end\n    \n    PUBLISHER --&gt; PUB\n    PUB --&gt; SUBSCRIBER\n    \n    PUBLISHER --&gt; STREAMS\n    STREAMS --&gt; CONSUMER\n    \n    PUBLISHER --&gt; LISTS\n    LISTS --&gt; CONSUMER&quot;}" id="03b6c068ee5442cf">
          <mxCell style="shape=image;noLabel=1;verticalAlign=top;imageAspect=1;image=data:image/svg+xml,PHN2ZyB3aWR0aD0iMjAwIiBoZWlnaHQ9IjIwMCIgeG1sbnM9Imh0dHA6Ly93d3cudzMub3JnLzIwMDAvc3ZnIj48cmVjdCB3aWR0aD0iMjAwIiBoZWlnaHQ9IjIwMCIgZmlsbD0iI2Y5ZjlmOSIgc3Ryb2tlPSIjY2NjIi8+PHRleHQgeD0iMTAwIiB5PSIxMDAiIHRleHQtYW5jaG9yPSJtaWRkbGUiIGZvbnQtZmFtaWx5PSJBcmlhbCIgZm9udC1zaXplPSIxNCIgZmlsbD0iIzMzMyI+TWVybWFpZCBEaWFncmFtPC90ZXh0Pjwvc3ZnPg==;" vertex="1" parent="1">
            <mxGeometry x="260" y="130" width="200" height="200" as="geometry" />
          </mxCell>
        </UserObject>
      </root>
    </mxGraphModel>
  </diagram>
  <diagram id="f262146acea64e55" name="Redis Graph Tb 2">
    <mxGraphModel dx="706" dy="604" grid="1" gridSize="10" guides="1" tooltips="1" connect="1" arrows="1" fold="1" page="1" pageScale="1" pageWidth="827" pageHeight="1169" math="0" shadow="0">
      <root>
        <mxCell id="0" />
        <mxCell id="1" parent="0" />
        <UserObject label="" mermaidData="{&quot;data&quot;:&quot;graph TB\n    subgraph \&quot;Redis Server\&quot;\n        ENGINE[Redis Engine]\n        \n        subgraph \&quot;Memory\&quot;\n            DATA[Data Store]\n            PUBSUB[Pub/Sub]\n        end\n        \n        subgraph \&quot;Persistence\&quot;\n            RDB[RDB Snapshots]\n            AOF[Append Only File]\n        end\n        \n        subgraph \&quot;Networking\&quot;\n            TCP[TCP Server]\n            CLIENT[Client Handler]\n        end\n    end\n    \n    subgraph \&quot;Clients\&quot;\n        APP[Applications]\n        CACHE[Cache Clients]\n        QUEUE[Queue Clients]\n    end\n    \n    APP --&gt; TCP\n    CACHE --&gt; TCP\n    QUEUE --&gt; TCP\n    \n    TCP --&gt; CLIENT\n    CLIENT --&gt; ENGINE\n    \n    ENGINE --&gt; DATA\n    ENGINE --&gt; PUBSUB\n    \n    ENGINE --&gt; RDB\n    ENGINE --&gt; AOF&quot;}" id="048d93948c9647b7">
          <mxCell style="shape=image;noLabel=1;verticalAlign=top;imageAspect=1;image=data:image/svg+xml,PHN2ZyB3aWR0aD0iMjAwIiBoZWlnaHQ9IjIwMCIgeG1sbnM9Imh0dHA6Ly93d3cudzMub3JnLzIwMDAvc3ZnIj48cmVjdCB3aWR0aD0iMjAwIiBoZWlnaHQ9IjIwMCIgZmlsbD0iI2Y5ZjlmOSIgc3Ryb2tlPSIjY2NjIi8+PHRleHQgeD0iMTAwIiB5PSIxMDAiIHRleHQtYW5jaG9yPSJtaWRkbGUiIGZvbnQtZmFtaWx5PSJBcmlhbCIgZm9udC1zaXplPSIxNCIgZmlsbD0iIzMzMyI+TWVybWFpZCBEaWFncmFtPC90ZXh0Pjwvc3ZnPg==;" vertex="1" parent="1">
            <mxGeometry x="260" y="130" width="200" height="200" as="geometry" />
          </mxCell>
        </UserObject>
      </root>
    </mxGraphModel>
  </diagram>
  <diagram id="23ee4ee61269471b" name="Redis Graph Tb 3">
    <mxGraphModel dx="706" dy="604" grid="1" gridSize="10" guides="1" tooltips="1" connect="1" arrows="1" fold="1" page="1" pageScale="1" pageWidth="827" pageHeight="1169" math="0" shadow="0">
      <root>
        <mxCell id="0" />
        <mxCell id="1" parent="0" />
        <UserObject label="" mermaidData="{&quot;data&quot;:&quot;graph TB\n    subgraph \&quot;Redis Cluster\&quot;\n        subgraph \&quot;Master Nodes\&quot;\n            M1[Master 1&lt;br/&gt;Slots 0-5460]\n            M2[Master 2&lt;br/&gt;Slots 5461-10922]\n            M3[Master 3&lt;br/&gt;Slots 10923-16383]\n        end\n        \n        subgraph \&quot;Replica Nodes\&quot;\n            R1[Replica 1]\n            R2[Replica 2]\n            R3[Replica 3]\n        end\n        \n        subgraph \&quot;Redis Sentinel\&quot;\n            S1[Sentinel 1]\n            S2[Sentinel 2]\n            S3[Sentinel 3]\n        end\n    end\n    \n    subgraph \&quot;Applications\&quot;\n        CLIENT[Redis Clients]\n        PROXY[Redis Proxy]\n    end\n    \n    CLIENT --&gt; PROXY\n    PROXY --&gt; M1\n    PROXY --&gt; M2\n    PROXY --&gt; M3\n    \n    M1 --&gt; R1\n    M2 --&gt; R2\n    M3 --&gt; R3\n    \n    S1 --&gt; M1\n    S2 --&gt; M2\n    S3 --&gt; M3\n    \n    S1 -.-&gt; S2\n    S2 -.-&gt; S3\n    S3 -.-&gt; S1&quot;}" id="bd61695ae38a4d38">
          <mxCell style="shape=image;noLabel=1;verticalAlign=top;imageAspect=1;image=data:image/svg+xml,PHN2ZyB3aWR0aD0iMjAwIiBoZWlnaHQ9IjIwMCIgeG1sbnM9Imh0dHA6Ly93d3cudzMub3JnLzIwMDAvc3ZnIj48cmVjdCB3aWR0aD0iMjAwIiBoZWlnaHQ9IjIwMCIgZmlsbD0iI2Y5ZjlmOSIgc3Ryb2tlPSIjY2NjIi8+PHRleHQgeD0iMTAwIiB5PSIxMDAiIHRleHQtYW5jaG9yPSJtaWRkbGUiIGZvbnQtZmFtaWx5PSJBcmlhbCIgZm9udC1zaXplPSIxNCIgZmlsbD0iIzMzMyI+TWVybWFpZCBEaWFncmFtPC90ZXh0Pjwvc3ZnPg==;" vertex="1" parent="1">
            <mxGeometry x="260" y="130" width="200" height="200" as="geometry" />
          </mxCell>
        </UserObject>
      </root>
    </mxGraphModel>
  </diagram>
  <diagram id="e168604e43f94259" name="Redis Graph Tb 4">
    <mxGraphModel dx="706" dy="604" grid="1" gridSize="10" guides="1" tooltips="1" connect="1" arrows="1" fold="1" page="1" pageScale="1" pageWidth="827" pageHeight="1169" math="0" shadow="0">
      <root>
        <mxCell id="0" />
        <mxCell id="1" parent="0" />
        <UserObject label="" mermaidData="{&quot;data&quot;:&quot;graph TB\n    subgraph \&quot;Production Environment\&quot;\n        subgraph \&quot;Availability Zone 1\&quot;\n            M1[Master 1]\n            R1[Replica 1]\n            S1[Sentinel 1]\n        end\n        \n        subgraph \&quot;Availability Zone 2\&quot;\n            M2[Master 2]\n            R2[Replica 2]\n            S2[Sentinel 2]\n        end\n        \n        subgraph \&quot;Availability Zone 3\&quot;\n            M3[Master 3]\n            R3[Replica 3]\n            S3[Sentinel 3]\n        end\n        \n        subgraph \&quot;Load Balancer\&quot;\n            LB[Redis Proxy]\n            HAP[HAProxy]\n        end\n        \n        subgraph \&quot;Monitoring\&quot;\n            MON[Redis Monitor]\n            ALERT[Alerting]\n        end\n    end\n    \n    subgraph \&quot;Applications\&quot;\n        APP[Applications]\n        CACHE[Cache Clients]\n        QUEUE[Queue Clients]\n    end\n    \n    APP --&gt; HAP\n    CACHE --&gt; HAP\n    QUEUE --&gt; HAP\n    \n    HAP --&gt; LB\n    LB --&gt; M1\n    LB --&gt; M2\n    LB --&gt; M3\n    \n    M1 --&gt; R1\n    M2 --&gt; R2\n    M3 --&gt; R3\n    \n    S1 --&gt; M1\n    S2 --&gt; M2\n    S3 --&gt; M3\n    \n    S1 -.-&gt; S2\n    S2 -.-&gt; S3\n    S3 -.-&gt; S1\n    \n    M1 --&gt; MON\n    M2 --&gt; MON\n    M3 --&gt; MON\n    \n    MON --&gt; ALERT&quot;}" id="957acf02ee3a4697">
          <mxCell style="shape=image;noLabel=1;verticalAlign=top;imageAspect=1;image=data:image/svg+xml,PHN2ZyB3aWR0aD0iMjAwIiBoZWlnaHQ9IjIwMCIgeG1sbnM9Imh0dHA6Ly93d3cudzMub3JnLzIwMDAvc3ZnIj48cmVjdCB3aWR0aD0iMjAwIiBoZWlnaHQ9IjIwMCIgZmlsbD0iI2Y5ZjlmOSIgc3Ryb2tlPSIjY2NjIi8+PHRleHQgeD0iMTAwIiB5PSIxMDAiIHRleHQtYW5jaG9yPSJtaWRkbGUiIGZvbnQtZmFtaWx5PSJBcmlhbCIgZm9udC1zaXplPSIxNCIgZmlsbD0iIzMzMyI+TWVybWFpZCBEaWFncmFtPC90ZXh0Pjwvc3ZnPg==;" vertex="1" parent="1">
            <mxGeometry x="260" y="130" width="200" height="200" as="geometry" />
          </mxCell>
        </UserObject>
      </root>
    </mxGraphModel>
  </diagram>
</mxfile>